<?xml version="1.0" encoding="UTF-8" standalone="no"?>
<!-- Created with Inkscape (http://www.inkscape.org/) -->

<svg
   xmlns:dc="http://purl.org/dc/elements/1.1/"
   xmlns:cc="http://creativecommons.org/ns#"
   xmlns:rdf="http://www.w3.org/1999/02/22-rdf-syntax-ns#"
   xmlns:svg="http://www.w3.org/2000/svg"
   xmlns="http://www.w3.org/2000/svg"
   xmlns:sodipodi="http://sodipodi.sourceforge.net/DTD/sodipodi-0.dtd"
   xmlns:inkscape="http://www.inkscape.org/namespaces/inkscape"
   version="1.1"
   id="svg853"
   xml:space="preserve"
   width="391.17599"
   height="99.01947"
   viewBox="0 0 391.17599 99.01947"
   sodipodi:docname="IDEO_LOGO_2014_FINAL-white.svg"
   inkscape:version="0.92.2 5c3e80d, 2017-08-06"><metadata
     id="metadata859"><rdf:RDF><cc:Work
         rdf:about=""><dc:format>image/svg+xml</dc:format><dc:type
           rdf:resource="http://purl.org/dc/dcmitype/StillImage" /><dc:title></dc:title></cc:Work></rdf:RDF></metadata><defs
     id="defs857"><clipPath
       clipPathUnits="userSpaceOnUse"
       id="clipPath869"><path
         d="M 0,74.265 H 293.382 V 0 H 0 Z"
         id="path867"
         inkscape:connector-curvature="0" /></clipPath></defs><sodipodi:namedview
     pagecolor="#ffffff"
     bordercolor="#666666"
     borderopacity="1"
     objecttolerance="10"
     gridtolerance="10"
     guidetolerance="10"
     inkscape:pageopacity="0"
     inkscape:pageshadow="2"
     inkscape:window-width="1280"
     inkscape:window-height="756"
     id="namedview855"
     showgrid="false"
     inkscape:zoom="1.8968444"
     inkscape:cx="195.588"
     inkscape:cy="49.509735"
     inkscape:window-x="0"
     inkscape:window-y="0"
     inkscape:window-maximized="0"
     inkscape:current-layer="g861" /><g
     id="g861"
     inkscape:groupmode="layer"
     inkscape:label="IDEO_LOGO_2014_FINAL"
     transform="matrix(1.3333333,0,0,-1.3333333,0,99.019467)"><path
       inkscape:connector-curvature="0"
       id="path873"
       style="fill:#f0f0f0;fill-opacity:1;fill-rule:nonzero;stroke:none"
       d="m 109.0518,17.6338 v 0.009 h -17.909 v 39.098 h 18.075 c 11.74,-0.276 19.383,-8.473 19.383,-19.629 0,-11.209 -7.714,-19.282 -19.549,-19.478 m 0.532,49.361 H 80.4468 V 7.3718 h 28.56 c 18.491,0.205 31.228,13.166 31.228,29.901 0,16.555 -12.474,29.265 -30.651,29.722" /><path
       inkscape:connector-curvature="0"
       id="path877"
       style="fill:#f0f0f0;fill-opacity:1;fill-rule:nonzero;stroke:none"
       d="m 64.7012,56.5186 v 10.477 H 5.0732 v -10.477 h 24.453 v -38.67 H 5.0732 V 7.3726 h 59.628 v 10.476 h -24.448 v 38.67 z" /><path
       inkscape:connector-curvature="0"
       id="path881"
       style="fill:#f0f0f0;fill-opacity:1;fill-rule:nonzero;stroke:none"
       d="m 213.4229,56.5625 v 10.433 h -60.105 V 7.3725 h 60.105 v 10.44 h -49.325 v 14.159 h 38.501 v 10.432 h -38.501 v 14.159 z" /><path
       inkscape:connector-curvature="0"
       id="path885"
       style="fill:#f0f0f0;fill-opacity:1;fill-rule:nonzero;stroke:none"
       d="m 255.7725,15.9443 c -11.846,0 -21.453,9.511 -21.453,21.247 0,11.72 9.607,21.232 21.453,21.232 11.844,0 21.453,-9.512 21.453,-21.232 0,-11.736 -9.609,-21.247 -21.453,-21.247 m 0,53.679 c -18.098,0 -32.764,-14.527 -32.764,-32.432 0,-17.922 14.666,-32.439 32.764,-32.439 18.092,0 32.766,14.517 32.766,32.439 0,17.905 -14.674,32.432 -32.766,32.432" /></g></svg>